<svg width="16" height="17" viewBox="0 0 16 17" fill="none" xmlns="http://www.w3.org/2000/svg">
<g clip-path="url(#clip0)">
<path d="M13.3598 3.33721C12.3675 2.88191 11.3034 2.54645 10.1908 2.35432C10.1706 2.35061 10.1503 2.35988 10.1399 2.37841C10.003 2.62182 9.85146 2.93936 9.7453 3.18894C8.54865 3.00979 7.35814 3.00979 6.18603 3.18894C6.07987 2.9338 5.92277 2.62182 5.78531 2.37841C5.77488 2.3605 5.75463 2.35123 5.73438 2.35432C4.62241 2.54583 3.55831 2.88129 2.5654 3.33721C2.55681 3.34092 2.54945 3.3471 2.54454 3.35513C0.526187 6.37052 -0.0267268 9.31177 0.244514 12.2166C0.245741 12.2308 0.253719 12.2444 0.264765 12.253C1.59642 13.231 2.88635 13.8247 4.15234 14.2182C4.17259 14.2244 4.19407 14.217 4.20696 14.2003C4.50643 13.7913 4.77337 13.3601 5.00227 12.9066C5.01577 12.8801 5.00288 12.8486 4.97527 12.8381C4.55184 12.6774 4.14866 12.4816 3.76082 12.2592C3.73014 12.2413 3.72769 12.1974 3.75591 12.1764C3.83753 12.1153 3.91915 12.0516 3.99709 11.9874C4.0112 11.9756 4.03084 11.9732 4.04741 11.9806C6.59535 13.1439 9.35378 13.1439 11.8717 11.9806C11.8882 11.9726 11.9079 11.975 11.9226 11.9868C12.0005 12.051 12.0821 12.1153 12.1644 12.1764C12.1926 12.1974 12.1908 12.2413 12.1601 12.2592C11.7722 12.4859 11.3691 12.6774 10.945 12.8375C10.9174 12.848 10.9051 12.8801 10.9186 12.9066C11.1524 13.3595 11.4194 13.7907 11.7133 14.1997C11.7256 14.217 11.7477 14.2244 11.7679 14.2182C13.0401 13.8247 14.33 13.231 15.6617 12.253C15.6733 12.2444 15.6807 12.2314 15.6819 12.2172C16.0065 8.85894 15.1382 5.94178 13.38 3.35574C13.3758 3.3471 13.3684 3.34092 13.3598 3.33721ZM5.38274 10.4479C4.61566 10.4479 3.98358 9.7436 3.98358 8.87871C3.98358 8.01382 4.60339 7.30955 5.38274 7.30955C6.16824 7.30955 6.79418 8.01999 6.7819 8.87871C6.7819 9.7436 6.1621 10.4479 5.38274 10.4479ZM10.556 10.4479C9.78887 10.4479 9.15679 9.7436 9.15679 8.87871C9.15679 8.01382 9.7766 7.30955 10.556 7.30955C11.3414 7.30955 11.9674 8.01999 11.9551 8.87871C11.9551 9.7436 11.3414 10.4479 10.556 10.4479Z" fill="white"/>
</g>
<defs>
<clipPath id="clip0">
<rect width="15.5688" height="15.5688" fill="white" transform="translate(0.180176 0.508789)"/>
</clipPath>
</defs>
</svg>
