<svg width="17" height="17" viewBox="0 0 17 17" fill="none" xmlns="http://www.w3.org/2000/svg">
<g clip-path="url(#clip0)">
<path d="M15.3213 0.508789H2.05444C1.41892 0.508789 0.905029 1.01052 0.905029 1.63084V14.9525C0.905029 15.5728 1.41892 16.0776 2.05444 16.0776H15.3213C15.9569 16.0776 16.4738 15.5728 16.4738 14.9555V1.63084C16.4738 1.01052 15.9569 0.508789 15.3213 0.508789ZM5.52397 13.7757H3.21298V6.34404H5.52397V13.7757ZM4.36847 5.33146C3.62652 5.33146 3.02749 4.73243 3.02749 3.99352C3.02749 3.25461 3.62652 2.65558 4.36847 2.65558C5.10738 2.65558 5.70641 3.25461 5.70641 3.99352C5.70641 4.72939 5.10738 5.33146 4.36847 5.33146ZM14.1719 13.7757H11.864V10.1633C11.864 9.30271 11.8488 8.19283 10.6629 8.19283C9.46177 8.19283 9.27933 9.13243 9.27933 10.1024V13.7757H6.97442V6.34404H9.1881V7.35966H9.21851C9.52563 6.77583 10.2797 6.15855 11.4018 6.15855C13.7401 6.15855 14.1719 7.69718 14.1719 9.69801V13.7757Z" fill="white"/>
</g>
<defs>
<clipPath id="clip0">
<rect width="15.5688" height="15.5688" fill="white" transform="translate(0.905029 0.508789)"/>
</clipPath>
</defs>
</svg>
