<svg width="17" height="17" viewBox="0 0 17 17" fill="none" xmlns="http://www.w3.org/2000/svg">
<g clip-path="url(#clip0)">
<path d="M11.6862 0.508789H9.06242V11.1136C9.06242 12.3772 8.05329 13.4151 6.79746 13.4151C5.54162 13.4151 4.53248 12.3772 4.53248 11.1136C4.53248 9.87263 5.5192 8.85724 6.73019 8.81213V6.14966C4.06154 6.19476 1.90869 8.38343 1.90869 11.1136C1.90869 13.8664 4.10639 16.0776 6.81989 16.0776C9.53335 16.0776 11.7311 13.8438 11.7311 11.1136V5.67581C12.7178 6.39785 13.9287 6.82655 15.207 6.84913V4.18663C13.2336 4.11894 11.6862 2.49437 11.6862 0.508789Z" fill="white"/>
</g>
<defs>
<clipPath id="clip0">
<rect width="15.5688" height="15.5688" fill="white" transform="translate(0.611328 0.508789)"/>
</clipPath>
</defs>
</svg>
