<svg width="17" height="17" viewBox="0 0 17 17" fill="none" xmlns="http://www.w3.org/2000/svg">
<g clip-path="url(#clip0)">
<path d="M16.0424 8.29318C16.0424 3.99398 12.5572 0.508789 8.25802 0.508789C3.95882 0.508789 0.473633 3.99398 0.473633 8.29318C0.473633 12.1785 3.32026 15.399 7.04171 15.983V10.5434H5.0652V8.29318H7.04171V6.57818C7.04171 4.62722 8.20389 3.54957 9.98199 3.54957C10.8334 3.54957 11.7245 3.7016 11.7245 3.7016V5.61729H10.7429C9.77598 5.61729 9.47433 6.21739 9.47433 6.8336V8.29318H11.6333L11.2882 10.5434H9.47433V15.983C13.1958 15.399 16.0424 12.1785 16.0424 8.29318Z" fill="white"/>
</g>
<defs>
<clipPath id="clip0">
<rect width="15.5688" height="15.5688" fill="white" transform="translate(0.473633 0.508789)"/>
</clipPath>
</defs>
</svg>
