<svg width="16" height="17" viewBox="0 0 16 17" fill="none" xmlns="http://www.w3.org/2000/svg">
<g clip-path="url(#clip0)">
<path d="M8.12057 1.91059C10.2005 1.91059 10.4468 1.91971 11.2647 1.9562C12.0249 1.98965 12.4354 2.11736 12.7091 2.22379C13.071 2.36366 13.3325 2.53395 13.6031 2.80457C13.8768 3.07824 14.044 3.33671 14.1839 3.69856C14.2903 3.97223 14.418 4.38578 14.4515 5.14293C14.488 5.96394 14.4971 6.21024 14.4971 8.28709C14.4971 10.367 14.488 10.6133 14.4515 11.4313C14.418 12.1915 14.2903 12.602 14.1839 12.8756C14.044 13.2375 13.8737 13.499 13.6031 13.7696C13.3294 14.0433 13.071 14.2105 12.7091 14.3504C12.4354 14.4568 12.0219 14.5845 11.2647 14.618C10.4437 14.6545 10.1974 14.6636 8.12057 14.6636C6.04068 14.6636 5.79438 14.6545 4.97641 14.618C4.21621 14.5845 3.80571 14.4568 3.53204 14.3504C3.17019 14.2105 2.90868 14.0402 2.63805 13.7696C2.36438 13.4959 2.19714 13.2375 2.05726 12.8756C1.95083 12.602 1.82312 12.1884 1.78967 11.4313C1.75318 10.6102 1.74406 10.3639 1.74406 8.28709C1.74406 6.2072 1.75318 5.9609 1.78967 5.14293C1.82312 4.38274 1.95083 3.97223 2.05726 3.69856C2.19714 3.33671 2.36742 3.0752 2.63805 2.80457C2.91172 2.53091 3.17019 2.36366 3.53204 2.22379C3.80571 2.11736 4.21925 1.98965 4.97641 1.9562C5.79438 1.91971 6.04068 1.91059 8.12057 1.91059ZM8.12057 0.508789C6.00723 0.508789 5.74268 0.517911 4.91255 0.554401C4.08546 0.59089 3.51683 0.724684 3.02423 0.916253C2.51034 1.11694 2.07551 1.38149 1.64372 1.81632C1.20888 2.24811 0.944337 2.68294 0.743646 3.19379C0.552077 3.68944 0.418283 4.25502 0.381793 5.08212C0.345304 5.91529 0.336182 6.17984 0.336182 8.29318C0.336182 10.4065 0.345304 10.6711 0.381793 11.5012C0.418283 12.3283 0.552077 12.8969 0.743646 13.3895C0.944337 13.9034 1.20888 14.3382 1.64372 14.77C2.07551 15.2018 2.51034 15.4694 3.02119 15.6671C3.51683 15.8586 4.08242 15.9924 4.90951 16.0289C5.73964 16.0654 6.00419 16.0745 8.11753 16.0745C10.2309 16.0745 10.4954 16.0654 11.3255 16.0289C12.1526 15.9924 12.7213 15.8586 13.2139 15.6671C13.7247 15.4694 14.1596 15.2018 14.5913 14.77C15.0231 14.3382 15.2907 13.9034 15.4884 13.3926C15.6799 12.8969 15.8137 12.3313 15.8502 11.5042C15.8867 10.6741 15.8958 10.4096 15.8958 8.29622C15.8958 6.18288 15.8867 5.91833 15.8502 5.0882C15.8137 4.26111 15.6799 3.69248 15.4884 3.19988C15.2968 2.68294 15.0323 2.24811 14.5974 1.81632C14.1656 1.38453 13.7308 1.11694 13.22 0.919294C12.7243 0.727725 12.1587 0.593931 11.3316 0.557441C10.4985 0.517911 10.2339 0.508789 8.12057 0.508789Z" fill="white"/>
<path d="M8.12045 4.29443C5.91284 4.29443 4.12183 6.08545 4.12183 8.29305C4.12183 10.5007 5.91284 12.2917 8.12045 12.2917C10.328 12.2917 12.1191 10.5007 12.1191 8.29305C12.1191 6.08545 10.328 4.29443 8.12045 4.29443ZM8.12045 10.8868C6.68824 10.8868 5.52666 9.72526 5.52666 8.29305C5.52666 6.86085 6.68824 5.69927 8.12045 5.69927C9.55265 5.69927 10.7142 6.86085 10.7142 8.29305C10.7142 9.72526 9.55265 10.8868 8.12045 10.8868Z" fill="white"/>
<path d="M13.2108 4.13664C13.2108 4.65358 12.7912 5.07016 12.2773 5.07016C11.7603 5.07016 11.3438 4.65054 11.3438 4.13664C11.3438 3.61971 11.7634 3.20312 12.2773 3.20312C12.7912 3.20312 13.2108 3.62275 13.2108 4.13664Z" fill="white"/>
</g>
<defs>
<clipPath id="clip0">
<rect width="15.5688" height="15.5688" fill="white" transform="translate(0.336182 0.508789)"/>
</clipPath>
</defs>
</svg>
