<svg width="16" height="17" viewBox="0 0 16 17" fill="none" xmlns="http://www.w3.org/2000/svg">
<g clip-path="url(#clip0)">
<path d="M4.94026 14.6179C10.8138 14.6179 14.0273 9.7505 14.0273 5.53081C14.0273 5.39398 14.0243 5.2541 14.0182 5.11727C14.6433 4.66519 15.1828 4.10523 15.6113 3.46369C15.0291 3.72272 14.4109 3.89189 13.778 3.96542C14.4444 3.56593 14.9434 2.93836 15.1825 2.19903C14.5555 2.5706 13.8699 2.83271 13.1549 2.97413C12.6732 2.46227 12.0363 2.12336 11.3426 2.0098C10.649 1.89623 9.93721 2.01434 9.31741 2.34585C8.69761 2.67737 8.20428 3.20383 7.91369 3.84384C7.62311 4.48385 7.55145 5.20176 7.7098 5.88658C6.44027 5.82288 5.1983 5.49309 4.0644 4.9186C2.93051 4.3441 1.93 3.53773 1.12773 2.55176C0.719981 3.25478 0.595209 4.08667 0.778774 4.87837C0.962339 5.67007 1.44047 6.36218 2.11599 6.81402C1.60885 6.79792 1.11282 6.66138 0.66888 6.41568V6.45521C0.668426 7.19297 0.923477 7.90812 1.39068 8.47909C1.85788 9.05006 2.50839 9.44162 3.23165 9.58721C2.76186 9.71574 2.2688 9.73447 1.79062 9.64194C1.99471 10.2764 2.39179 10.8314 2.92645 11.2293C3.4611 11.6272 4.10666 11.8483 4.77302 11.8617C3.64174 12.7503 2.24428 13.2323 0.805715 13.2301C0.550598 13.2297 0.295732 13.214 0.0424805 13.1832C1.50391 14.1208 3.20393 14.6188 4.94026 14.6179Z" fill="white"/>
</g>
<defs>
<clipPath id="clip0">
<rect width="15.5688" height="15.5688" fill="white" transform="translate(0.0424805 0.508789)"/>
</clipPath>
</defs>
</svg>
